{"title":"Red Tails 2012 CAM READNFO XViD v2 - INSPIRAL","uid":7008919,"size":1497744049,"categoryP":"video","categoryS":"movies","magnet":"?xt=urn:btih:62e222116d5c82a24d2602c45fea2db545ab6d00&amp;dn=Red+Tails+2012+CAM+READNFO+XViD+v2+-+INSPIRAL&amp;tr=udp%3A%2F%2Ftracker.openbittorrent.com%3A80&amp;tr=udp%3A%2F%2Fopen.demonii.com%3A1337&amp;tr=udp%3A%2F%2Ftracker.coppersurfer.tk%3A6969&amp;tr=udp%3A%2F%2Fexodus.desync.com%3A6969","seeders":1,"leechers":0,"uploader":"Schwarzenbart","files":4,"time":1328367223,"description":"\nGeneral Information\nIMDB: &lt;a href=&quot; http://www.imdb.com/title/tt0485985/&quot; rel=&quot;nofollow&quot; target=&quot;_NEW&quot;&gt; http://www.imdb.com/title/tt0485985/&lt;/a&gt;\nGenres: Action | Adventure | Drama | History | War\nLanguage: English | Italian | German\nCountry: USA\nRuntime: USA: 125 min\n\nVideo Information\nID : 0\nFormat : MPEG-4 Visual\nFormat profile : Advanced Simple@L5\nFormat settings, BVOP : 2\nFormat settings, QPel : No\nFormat settings, GMC : No warppoints\nFormat settings, Matrix : Default (MPEG)\nMuxing mode : Packed bitstream\nCodec ID : XVID\nCodec ID/Hint : XviD\nDuration : 1h 57mn\nBit rate : 1 540 Kbps\nWidth : 608 pixels\nHeight : 288 pixels\nDisplay aspect ratio : 2.2:1\nFrame rate : 23.976 fps\nColor space : YUV\nChroma subsampling : 4:2:0\nBit depth : 8 bits\nScan type : Progressive\nCompression mode : Lossy\nBits/(Pixel*Frame) : 0.367\nStream size : 1.27 GiB (92%)\nWriting library : XviD 64\n\nAudio Information\nID : 1\nFormat : MPEG Audio\nFormat version : Version 1\nFormat profile : Layer 3\nCodec ID : 55\nCodec ID/Hint : MP3\nDuration : 1h 57mn\nBit rate mode : Constant\nBit rate : 128 Kbps\nChannel(s) : 2 channels\nSampling rate : 44.1 KHz\nCompression mode : Lossy\nStream size : 108 MiB (8%)\nAlignment : Split accross interleaves\nInterleave, duration : 42 ms (1.00 video frame)\nInterleave, preload duration : 500 ms &lt;a href=&quot;\nhttp://www.aedes.us/d/MXGko.png&quot; rel=&quot;nofollow&quot; target=&quot;_NEW&quot;&gt;\nhttp://www.aedes.us/d/MXGko.png&lt;/a&gt; &lt;a href=&quot;\nhttp://www.aedes.us/d/ixZgL.png&quot; rel=&quot;nofollow&quot; target=&quot;_NEW&quot;&gt;\nhttp://www.aedes.us/d/ixZgL.png&lt;/a&gt; &lt;a href=&quot;\nhttp://www.aedes.us/d/dyQq5.png&quot; rel=&quot;nofollow&quot; target=&quot;_NEW&quot;&gt;\nhttp://www.aedes.us/d/dyQq5.png&lt;/a&gt;\nNotes\nOk for off many thanks for sharing that ISO guys ....thank you. Now the source ...lots of camera movement throughout,a tad washed out,lots of glares,lacked a bit of colour...but overall for a cam,pretty decent Audio was AC3 and was pretty nice too be honest for cam ...one of the better ones. First due to the camera movement we thought at first fack cutting this up ....but been a little quiet so went back to\nthe drawing board and decided to cut this up lol....in total we cut into 12 pieces. From here we took each part and used a quad filter to allow us to level up the video and then used crop to remove all unwanted\nareas without losing too much video at all Also each part we increased the contrast, lowered the brightness ...increased the chroma,lowered the intes to dull the glares and and used a heavu noise filter aswell as balancing out the sharpness. Was a pita sitting their scrolling through it finding the camera moves but overall think we removed 95% of it and the main part left is the opening 2mins and thats nothing majo. Cheack sample for Q ,but too see all the work done you need to view the whole file as you'll see how well the movement as been dealt with.","torrent":{"xt":"urn:btih:62e222116d5c82a24d2602c45fea2db545ab6d00","amp;dn":"Red+Tails+2012+CAM+READNFO+XViD+v2+-+INSPIRAL","amp;tr":["udp%3A%2F%2Ftracker.openbittorrent.com%3A80","udp%3A%2F%2Fopen.demonii.com%3A1337","udp%3A%2F%2Ftracker.coppersurfer.tk%3A6969","udp%3A%2F%2Fexodus.desync.com%3A6969"],"infoHash":"62e222116d5c82a24d2602c45fea2db545ab6d00","infoHashBuffer":{"type":"Buffer","data":[98,226,34,17,109,92,130,162,77,38,2,196,95,234,45,181,69,171,109,0]},"announce":[],"urlList":[]}}